<svg width="1200" height="520" viewBox="0 0 1200 520" fill="none" xmlns="http://www.w3.org/2000/svg" role="img" aria-labelledby="title desc">
  <title id="title">Loop Factory</title>
  <desc id="desc">Coordinate agent roles to move complex software work from problem to reviewed pull request.</desc>
  <rect width="1200" height="520" rx="28" fill="#0B1020"/>
  <rect x="28" y="28" width="1144" height="464" rx="22" fill="#111827" stroke="#263244" stroke-width="2"/>
  <circle cx="1010" cy="96" r="132" fill="#1D4ED8" opacity="0.18"/>
  <circle cx="169" cy="426" r="120" fill="#14B8A6" opacity="0.14"/>
  <path d="M112 120C112 98.46 129.46 81 151 81H478C499.54 81 517 98.46 517 120V277C517 298.54 499.54 316 478 316H151C129.46 316 112 298.54 112 277V120Z" fill="#F8FAFC"/>
  <text x="148" y="143" fill="#0F172A" font-family="Inter, ui-sans-serif, system-ui, -apple-system, BlinkMacSystemFont, Segoe UI, sans-serif" font-size="24" font-weight="700">Developer request</text>
  <text x="148" y="187" fill="#334155" font-family="Inter, ui-sans-serif, system-ui, -apple-system, BlinkMacSystemFont, Segoe UI, sans-serif" font-size="28" font-weight="700">"Fix checkout retry</text>
  <text x="148" y="225" fill="#334155" font-family="Inter, ui-sans-serif, system-ui, -apple-system, BlinkMacSystemFont, Segoe UI, sans-serif" font-size="28" font-weight="700">behavior."</text>
  <rect x="148" y="252" width="216" height="34" rx="17" fill="#DBEAFE"/>
  <text x="168" y="275" fill="#1D4ED8" font-family="Inter, ui-sans-serif, system-ui, -apple-system, BlinkMacSystemFont, Segoe UI, sans-serif" font-size="17" font-weight="700">Complex task in</text>

  <path d="M542 195H656" stroke="#60A5FA" stroke-width="5" stroke-linecap="round"/>
  <path d="M640 177L663 195L640 213" stroke="#60A5FA" stroke-width="5" stroke-linecap="round" stroke-linejoin="round"/>

  <rect x="688" y="78" width="382" height="282" rx="28" fill="#162235" stroke="#324258" stroke-width="2"/>
  <text x="728" y="127" fill="#F8FAFC" font-family="Inter, ui-sans-serif, system-ui, -apple-system, BlinkMacSystemFont, Segoe UI, sans-serif" font-size="42" font-weight="800">Loop Factory</text>
  <text x="730" y="164" fill="#A7B5C8" font-family="Inter, ui-sans-serif, system-ui, -apple-system, BlinkMacSystemFont, Segoe UI, sans-serif" font-size="21" font-weight="500">Issue to branch to PR, with proof.</text>

  <rect x="728" y="203" width="108" height="42" rx="21" fill="#1E293B" stroke="#3B82F6"/>
  <text x="757" y="231" fill="#DBEAFE" font-family="Inter, ui-sans-serif, system-ui, -apple-system, BlinkMacSystemFont, Segoe UI, sans-serif" font-size="16" font-weight="700">Issue</text>
  <rect x="852" y="203" width="108" height="42" rx="21" fill="#1E293B" stroke="#14B8A6"/>
  <text x="876" y="231" fill="#CCFBF1" font-family="Inter, ui-sans-serif, system-ui, -apple-system, BlinkMacSystemFont, Segoe UI, sans-serif" font-size="16" font-weight="700">Branch</text>
  <rect x="976" y="203" width="62" height="42" rx="21" fill="#1E293B" stroke="#F59E0B"/>
  <text x="994" y="231" fill="#FEF3C7" font-family="Inter, ui-sans-serif, system-ui, -apple-system, BlinkMacSystemFont, Segoe UI, sans-serif" font-size="16" font-weight="700">PR</text>

  <rect x="728" y="278" width="120" height="38" rx="19" fill="#0F766E"/>
  <text x="751" y="303" fill="#ECFEFF" font-family="Inter, ui-sans-serif, system-ui, -apple-system, BlinkMacSystemFont, Segoe UI, sans-serif" font-size="15" font-weight="700">Review</text>
  <rect x="862" y="278" width="120" height="38" rx="19" fill="#1D4ED8"/>
  <text x="884" y="303" fill="#EFF6FF" font-family="Inter, ui-sans-serif, system-ui, -apple-system, BlinkMacSystemFont, Segoe UI, sans-serif" font-size="15" font-weight="700">Verify</text>
  <rect x="996" y="278" width="42" height="38" rx="19" fill="#B45309"/>
  <text x="1008" y="303" fill="#FFFBEB" font-family="Inter, ui-sans-serif, system-ui, -apple-system, BlinkMacSystemFont, Segoe UI, sans-serif" font-size="15" font-weight="700">OK</text>

  <text x="113" y="391" fill="#F8FAFC" font-family="Inter, ui-sans-serif, system-ui, -apple-system, BlinkMacSystemFont, Segoe UI, sans-serif" font-size="54" font-weight="850">Ship with agents.</text>
  <text x="113" y="438" fill="#CBD5E1" font-family="Inter, ui-sans-serif, system-ui, -apple-system, BlinkMacSystemFont, Segoe UI, sans-serif" font-size="26" font-weight="500">Keep the work in GitHub. Keep the developer in control.</text>
</svg>
